<svg width="97" height="92" viewBox="0 0 97 92" fill="none" xmlns="http://www.w3.org/2000/svg">
<g id="Group 1">
<rect id="Rectangle" width="32.1797" height="10.5152" transform="matrix(0.998665 0.0516608 -0.0941053 0.995562 62.9819 0)" fill="#FF7272" fill-opacity="0.6"/>
<rect id="Rectangle_2" width="7.70659" height="8.6991" transform="matrix(0.998665 -0.0516608 0.0941053 0.995562 58.0819 30.8117)" fill="#FF7272" fill-opacity="0.85"/>
<path id="Polygon" d="M69.0646 85.9053L71.8469 88.447L69.439 91.1899L65.1686 90.3435L64.9372 87.0774L69.0646 85.9053Z" fill="#FF7272" fill-opacity="0.6"/>
<path id="Star" d="M0.865918 25.3669L4.21596 23.9184L4.91018 21.0942L6.86827 23.5724L10.686 24.086L7.33594 25.5345L6.64172 28.3588L4.68363 25.8805L0.865918 25.3669Z" fill="#FF7272" fill-opacity="0.65"/>
<path id="Polygon_2" d="M37.8141 65.505L36.1654 63.0044L38.2684 60.698L42.0201 60.892L43.6687 63.3926L41.5657 65.6991L37.8141 65.505Z" fill="#755FFE" fill-opacity="0.9"/>
<path id="Polygon_3" d="M93.4661 49.8877L94.5972 54.6333L88.4762 52.9852L93.4661 49.8877Z" fill="#F54721" fill-opacity="0.65"/>
<path id="Star_2" d="M17.9101 58.8978L21.8297 57.5501L20.1359 54.6084L23.6733 56.4457L26.2702 53.8897L25.8881 57.0746L30.1788 57.4603L26.2592 58.808L27.953 61.7497L24.4156 59.9124L21.8187 62.4685L22.2008 59.2835L17.9101 58.8978Z" fill="#480CA7" fill-opacity="0.45"/>
<path id="Star_3" d="M31.7394 32.6601L28.2915 33.9769L27.3984 36.7704L25.6184 34.2197L21.8422 33.5591L25.2901 32.2422L26.1832 29.4487L27.9633 31.9994L31.7394 32.6601Z" fill="#755FFE" fill-opacity="0.9"/>
</g>
</svg>
