<svg width="111" height="143" viewBox="0 0 111 143" fill="none" xmlns="http://www.w3.org/2000/svg">
<rect x="15" width="81" height="100" fill="#1A9367"/>
<path d="M21.078 112.95H13.23V135H8.388V112.95H0.54V108.972H21.078V112.95ZM27.9115 118.512C28.6315 117.84 29.4235 117.294 30.2875 116.874C31.1515 116.454 32.1655 116.244 33.3295 116.244C34.3375 116.244 35.2315 116.418 36.0115 116.766C36.7915 117.102 37.4395 117.582 37.9555 118.206C38.4835 118.818 38.8795 119.556 39.1435 120.42C39.4195 121.272 39.5575 122.214 39.5575 123.246V135H35.1115V123.246C35.1115 122.118 34.8535 121.248 34.3375 120.636C33.8215 120.012 33.0355 119.7 31.9795 119.7C31.2115 119.7 30.4915 119.874 29.8195 120.222C29.1475 120.57 28.5115 121.044 27.9115 121.644V135H23.4655V108.252H27.9115V118.512ZM55.6838 123.642C55.6838 123.066 55.5998 122.526 55.4318 122.022C55.2758 121.506 55.0358 121.056 54.7118 120.672C54.3878 120.288 53.9738 119.988 53.4698 119.772C52.9778 119.544 52.4018 119.43 51.7418 119.43C50.4578 119.43 49.4438 119.796 48.6998 120.528C47.9678 121.26 47.4998 122.298 47.2958 123.642H55.6838ZM47.2058 126.324C47.2778 127.272 47.4458 128.094 47.7098 128.79C47.9738 129.474 48.3218 130.044 48.7538 130.5C49.1858 130.944 49.6958 131.28 50.2838 131.508C50.8838 131.724 51.5438 131.832 52.2638 131.832C52.9838 131.832 53.6018 131.748 54.1178 131.58C54.6458 131.412 55.1018 131.226 55.4858 131.022C55.8818 130.818 56.2238 130.632 56.5118 130.464C56.8118 130.296 57.0998 130.212 57.3758 130.212C57.7478 130.212 58.0238 130.35 58.2038 130.626L59.4818 132.246C58.9898 132.822 58.4378 133.308 57.8258 133.704C57.2138 134.088 56.5718 134.4 55.8998 134.64C55.2398 134.868 54.5618 135.03 53.8658 135.126C53.1818 135.222 52.5158 135.27 51.8678 135.27C50.5838 135.27 49.3898 135.06 48.2858 134.64C47.1818 134.208 46.2218 133.578 45.4058 132.75C44.5898 131.91 43.9478 130.878 43.4798 129.654C43.0118 128.418 42.7778 126.99 42.7778 125.37C42.7778 124.11 42.9818 122.928 43.3898 121.824C43.7978 120.708 44.3798 119.742 45.1358 118.926C45.9038 118.098 46.8338 117.444 47.9258 116.964C49.0298 116.484 50.2718 116.244 51.6518 116.244C52.8158 116.244 53.8898 116.43 54.8738 116.802C55.8578 117.174 56.7038 117.72 57.4118 118.44C58.1198 119.148 58.6718 120.024 59.0678 121.068C59.4758 122.1 59.6798 123.282 59.6798 124.614C59.6798 125.286 59.6078 125.742 59.4638 125.982C59.3198 126.21 59.0438 126.324 58.6358 126.324H47.2058ZM72.9993 131.22C73.8993 131.22 74.6553 131.112 75.2673 130.896C75.8793 130.68 76.3653 130.392 76.7253 130.032C77.0973 129.672 77.3613 129.252 77.5173 128.772C77.6853 128.292 77.7693 127.782 77.7693 127.242C77.7693 126.678 77.6793 126.174 77.4993 125.73C77.3193 125.274 77.0373 124.89 76.6533 124.578C76.2693 124.254 75.7713 124.008 75.1593 123.84C74.5593 123.672 73.8333 123.588 72.9813 123.588H68.1033V131.22H72.9993ZM68.1033 112.716V120.24H71.9553C73.6113 120.24 74.8593 119.94 75.6993 119.34C76.5513 118.74 76.9773 117.786 76.9773 116.478C76.9773 115.122 76.5933 114.156 75.8253 113.58C75.0573 113.004 73.8573 112.716 72.2253 112.716H68.1033ZM72.2253 108.972C73.9293 108.972 75.3873 109.134 76.5993 109.458C77.8113 109.782 78.8013 110.244 79.5693 110.844C80.3493 111.444 80.9193 112.17 81.2793 113.022C81.6393 113.874 81.8193 114.834 81.8193 115.902C81.8193 116.514 81.7293 117.102 81.5493 117.666C81.3693 118.218 81.0873 118.74 80.7033 119.232C80.3313 119.712 79.8513 120.15 79.2633 120.546C78.6873 120.942 77.9973 121.278 77.1933 121.554C80.7693 122.358 82.5573 124.29 82.5573 127.35C82.5573 128.454 82.3473 129.474 81.9273 130.41C81.5073 131.346 80.8953 132.156 80.0913 132.84C79.2873 133.512 78.2973 134.04 77.1213 134.424C75.9453 134.808 74.6013 135 73.0893 135H63.2613V108.972H72.2253ZM90.5462 116.532V135H86.0822V116.532H90.5462ZM91.1582 111.15C91.1582 111.534 91.0802 111.894 90.9242 112.23C90.7682 112.566 90.5582 112.86 90.2942 113.112C90.0422 113.364 89.7422 113.568 89.3942 113.724C89.0462 113.868 88.6742 113.94 88.2782 113.94C87.8942 113.94 87.5282 113.868 87.1802 113.724C86.8442 113.568 86.5502 113.364 86.2982 113.112C86.0462 112.86 85.8422 112.566 85.6862 112.23C85.5422 111.894 85.4702 111.534 85.4702 111.15C85.4702 110.754 85.5422 110.382 85.6862 110.034C85.8422 109.686 86.0462 109.386 86.2982 109.134C86.5502 108.882 86.8442 108.684 87.1802 108.54C87.5282 108.384 87.8942 108.306 88.2782 108.306C88.6742 108.306 89.0462 108.384 89.3942 108.54C89.7422 108.684 90.0422 108.882 90.2942 109.134C90.5582 109.386 90.7682 109.686 90.9242 110.034C91.0802 110.382 91.1582 110.754 91.1582 111.15ZM99.5788 108.252V135H95.1328V108.252H99.5788ZM108.509 108.252V135H104.062V108.252H108.509Z" fill="#1A9367"/>
<rect x="22" y="8" width="68" height="86" fill="#FFFEFE"/>
<line x1="29" y1="20.5" x2="83" y2="20.5" stroke="#1A9367" stroke-width="3"/>
<line x1="29" y1="32.5" x2="83" y2="32.5" stroke="#1A9367" stroke-width="3"/>
<line x1="29" y1="45.5" x2="83" y2="45.5" stroke="#1A9367" stroke-width="3"/>
<line x1="29" y1="58.5" x2="83" y2="58.5" stroke="#1A9367" stroke-width="3"/>
<line x1="29" y1="71.5" x2="83" y2="71.5" stroke="#1A9367" stroke-width="3"/>
</svg>
